<svg t="1681121252627" class="icon" viewBox="0 0 1024 1024" version="1.1" xmlns="http://www.w3.org/2000/svg" p-id="2129" width="48" height="48"><path d="M938.666667 183.466667H85.333333A72.533333 72.533333 0 0 0 12.8 256v512A72.533333 72.533333 0 0 0 85.333333 840.533333h853.333334a72.533333 72.533333 0 0 0 72.533333-72.533333V256A72.533333 72.533333 0 0 0 938.666667 183.466667zM85.333333 243.2h853.333334a12.8 12.8 0 0 1 12.8 12.8v512a12.8 12.8 0 0 1-12.8 12.8H85.333333a12.8 12.8 0 0 1-12.8-12.8V256a12.8 12.8 0 0 1 12.8-12.8z" fill="currentColor" p-id="2130"></path><path d="M981.333333 482.133333v59.733334H42.666667v-59.733334z" fill="currentColor" p-id="2131"></path><path d="M204.8 312.874667v98.602666h-42.666667v-98.56zM204.8 611.541333v98.602667h-42.666667v-98.56z" fill="#465CFF" p-id="2132"></path></svg>
