<?xml version="1.0" standalone="no"?><!DOCTYPE svg PUBLIC "-//W3C//DTD SVG 1.1//EN" "http://www.w3.org/Graphics/SVG/1.1/DTD/svg11.dtd"><svg t="1682579132199" class="icon" viewBox="0 0 1024 1024" version="1.1" xmlns="http://www.w3.org/2000/svg" p-id="8019" xmlns:xlink="http://www.w3.org/1999/xlink" width="72" height="72"><path d="M514.4064 517.7344m-450.816 0a450.816 450.816 0 1 0 901.632 0 450.816 450.816 0 1 0-901.632 0Z" fill="#FFF1DC" p-id="8020"></path><path d="M227.0208 625.92c39.9872-5.8368 63.9488-29.4912 63.8976-62.7712 0-33.2288-24.3712-57.3952-64.6144-62.72 0-39.3216-0.9216-78.848 0.4096-118.3232 0.6144-18.4832 16.7936-32.5632 36.4032-35.8912 6.656-1.1264 13.568-1.024 20.3264-1.0752 154.4192-0.0512 308.8384-0.0512 463.2576-0.0512 43.0592 0 58.3168 14.592 58.3168 55.7568v99.0208c-41.8304 7.3216-65.1776 31.0784-64.6656 64.6144 0.512 32.2048 24.2688 55.3472 64.3584 61.6448 0 38.8608 0.8704 77.9264-0.3584 116.9408-0.6656 20.6848-19.3536 36.1472-42.0352 37.9392-8.448 0.6656-16.9984 0.3072-25.5488 0.3072H288.8192c-49.3056 0-63.0784-13.0048-63.0784-59.5968 0-30.464 0.0512-60.8768 0.1536-91.3408 0.1024-1.024 0.5632-2.0992 1.1264-4.4544z m287.8464-101.888c41.9328 0 83.8656 0.1024 125.7984-0.0512 19.8144-0.0512 29.3376-8.3968 29.7472-25.4976 0.512-19.5584-9.1648-29.8496-29.2352-29.9008-83.3024-0.1536-166.6048-0.1536-249.9584 0-20.8896 0.0512-30.8736 9.728-30.7712 28.5184 0.1024 18.3808 9.2672 26.7264 30.208 26.8288 41.472 0.2048 82.8416 0.1024 124.2112 0.1024z m-1.1776 78.336c-40.2432 0-80.4864-0.0512-120.7808 0-21.8624 0.0512-32.6144 9.5232-32.4096 28.2624 0.2048 18.6368 9.984 27.136 31.9488 27.136 82.2272 0.1024 164.4032 0.1024 246.6304 0 21.8112-0.0512 31.5904-8.9088 31.3856-27.5456-0.256-19.6096-9.1648-27.8016-30.9248-27.8528-41.9328-0.1024-83.8656 0-125.8496 0z" fill="#FC7032" p-id="8021"></path><path d="M293.0176 300.8512h298.496L424.8576 217.8048a70.46144 70.46144 0 0 0-88.9856 22.4256l-42.8544 60.6208z" fill="#FF9552" p-id="8022"></path><path d="M805.12 400.8448c0-41.1648-15.2576-55.7568-58.3168-55.7568-154.4192 0-308.8384 0-463.2576 0.0512-6.8096 0-13.7216-0.1024-20.3264 1.0752-19.6096 3.328-35.7888 17.4592-36.4032 35.8912-1.3312 39.4752-0.4096 79.0528-0.4096 118.3232 40.192 5.3248 64.5632 29.4912 64.5632 62.72 0 33.28-23.9104 56.9344-63.8976 62.7712-0.5632 2.3552-0.9728 3.4304-0.9728 4.4544-0.1024 30.464-0.1536 60.8768-0.1536 91.3408 0 46.5408 13.7728 59.5968 63.0784 59.5968h225.8944c97.6896-34.304 179.968-101.2224 233.7792-187.7504-5.12-8.448-7.9872-18.2272-8.1408-29.0304-0.4608-29.7984 17.92-51.8144 51.2512-61.4912a449.6896 449.6896 0 0 0 13.4144-47.0016c-0.1024-18.3808-0.1024-36.7616-0.1024-55.1936zM391.3216 468.6336c83.3024-0.1536 166.6048-0.1536 249.9584 0 20.0704 0.0512 29.696 10.3424 29.2352 29.9008-0.4096 17.0496-9.984 25.4464-29.7472 25.4976-41.9328 0.1024-83.8656 0.0512-125.7984 0.0512-41.3696 0-82.7392 0.1024-124.1088-0.0512-20.9408-0.0512-30.1056-8.3968-30.208-26.8288-0.256-18.8416 9.728-28.5184 30.6688-28.5696z m247.7568 189.184c-82.2272 0.1024-164.4032 0.1024-246.6304 0-21.9648 0-31.744-8.4992-31.9488-27.136-0.2048-18.7392 10.5472-28.2112 32.4096-28.2624 40.2432-0.0512 80.4864 0 120.7808 0 41.9328 0 83.9168-0.0512 125.8496 0.0512 21.76 0.0512 30.6688 8.2432 30.9248 27.8528 0.256 18.5856-9.5744 27.4432-31.3856 27.4944z" fill="#FF7C33" p-id="8023"></path><path d="M263.168 346.2144c-19.6096 3.328-35.7888 17.4592-36.4032 35.8912-1.3312 39.4752-0.4096 79.0528-0.4096 118.3232 40.192 5.3248 64.5632 29.4912 64.5632 62.72 0 33.28-23.9104 56.9344-63.8976 62.7712-0.5632 2.3552-0.9728 3.4304-0.9728 4.4544 0 5.2736 0 10.5472-0.0512 15.872a451.3792 451.3792 0 0 0 134.5536-15.4112v-0.1536c-0.2048-18.7392 10.5472-28.2112 32.4096-28.2624h44.0832a451.02592 451.02592 0 0 0 114.0736-78.336h-36.1984c-41.3696 0-82.7392 0.1024-124.1088-0.0512-20.9408-0.0512-30.1056-8.3968-30.208-26.8288-0.1024-18.7904 9.8816-28.5184 30.7712-28.5184 69.888-0.1536 139.776-0.1024 209.664 0a448.42496 448.42496 0 0 0 66.6112-123.5456c-128.0512 0-256.0512 0-384.1024 0.0512-6.8096-0.0512-13.7728-0.1024-20.3776 1.024z" fill="#FF9552" p-id="8024"></path><path d="M263.168 346.2144c-19.6096 3.328-35.7888 17.4592-36.4032 35.8912-1.0752 31.4368-0.7168 62.9248-0.512 94.3104 90.0096-19.8144 169.8816-66.56 230.8608-131.2768h-173.568c-6.8096 0-13.7728-0.0512-20.3776 1.0752zM517.7856 264.0896l-92.928-46.2848a70.46144 70.46144 0 0 0-88.9856 22.4256l-42.8544 60.6208h200.7552c8.5504-11.8272 16.5888-24.064 24.0128-36.7616z" fill="#FFA56A" p-id="8025"></path></svg>