<?xml version="1.0" standalone="no"?><!DOCTYPE svg PUBLIC "-//W3C//DTD SVG 1.1//EN" "http://www.w3.org/Graphics/SVG/1.1/DTD/svg11.dtd"><svg t="1682579136846" class="icon" viewBox="0 0 1024 1024" version="1.1" xmlns="http://www.w3.org/2000/svg" p-id="8184" xmlns:xlink="http://www.w3.org/1999/xlink" width="72" height="72"><path d="M511.1808 511.6416m-450.816 0a450.816 450.816 0 1 0 901.632 0 450.816 450.816 0 1 0-901.632 0Z" fill="#FFE1E9" p-id="8185"></path><path d="M804.5568 714.2912H217.8048c-21.248 0-38.4512-17.2032-38.4512-38.4512v-4.6592c0-21.248 17.2032-38.4512 38.4512-38.4512h586.752c21.248 0 38.4512 17.2032 38.4512 38.4512v4.6592c0 21.1968-17.2032 38.4512-38.4512 38.4512zM802.2528 510.464h-4.1984c-15.616-116.0192-99.84-210.176-210.5344-240.384 0-0.3584 0.0512-0.7168 0.0512-1.0752 0-42.1888-34.2016-76.3904-76.3904-76.3904S434.7392 226.816 434.7392 269.0048c0 0.3584 0.0512 0.7168 0.0512 1.0752C324.096 300.288 239.872 394.4448 224.256 510.464h-4.1984c-22.528 0-40.7552 18.2272-40.7552 40.7552s18.2272 40.7552 40.7552 40.7552h582.144c22.528 0 40.7552-18.2272 40.7552-40.7552s-18.176-40.7552-40.704-40.7552zM464.0768 395.6736c-2.8672 0.4096-64.1024 10.24-89.6512 71.3216a27.40224 27.40224 0 0 1-25.344 16.8448c-3.5328 0-7.1168-0.6656-10.5984-2.1504a27.48416 27.48416 0 0 1-14.7456-35.9424c37.9904-90.7776 128.9728-104.0384 132.864-104.5504 14.9504-2.048 28.8256 8.4992 30.8736 23.552 2.048 15.0528-8.448 28.8256-23.3984 30.9248z" fill="#FF3369" p-id="8186"></path><path d="M791.0912 475.4432c-26.2656-99.6864-104.192-178.2784-203.52-205.3632 0-0.3584 0.0512-0.7168 0.0512-1.0752 0-42.1888-34.2016-76.3904-76.3904-76.3904S434.7904 226.816 434.7904 269.0048c0 0.3584 0.0512 0.7168 0.0512 1.0752-110.6944 30.208-194.9184 124.3648-210.4832 240.384H220.16c-22.528 0-40.7552 18.2272-40.7552 40.7552s18.2272 40.7552 40.7552 40.7552h509.7984a450.29376 450.29376 0 0 0 61.1328-116.5312zM464.0768 395.6736c-2.8672 0.4096-64.1024 10.24-89.6512 71.3216a27.40224 27.40224 0 0 1-25.344 16.8448c-3.5328 0-7.1168-0.6656-10.5984-2.1504a27.48416 27.48416 0 0 1-14.7456-35.9424c37.9904-90.7776 128.9728-104.0384 132.864-104.5504 14.9504-2.048 28.8256 8.4992 30.8736 23.552 2.048 15.0528-8.448 28.8256-23.3984 30.9248zM217.8048 632.7296c-21.248 0-38.4512 17.2032-38.4512 38.4512v4.6592c0 21.248 17.2032 38.4512 38.4512 38.4512h377.9072c37.376-22.272 71.2704-49.7664 100.6592-81.5104H217.8048z" fill="#FF4D7C" p-id="8187"></path><path d="M670.4128 307.6096a288.45568 288.45568 0 0 0-82.8416-37.5296c0-0.3584 0.0512-0.7168 0.0512-1.0752 0-42.1888-34.2016-76.3904-76.3904-76.3904S434.7904 226.816 434.7904 269.0048c0 0.3584 0.0512 0.7168 0.0512 1.0752-110.6944 30.208-194.9184 124.3648-210.4832 240.384H220.16c-22.528 0-40.7552 18.2272-40.7552 40.7552s18.2272 40.7552 40.7552 40.7552h171.4176c131.5328-46.1824 235.1616-151.6544 278.8352-284.3648zM349.0816 483.84c-3.5328 0-7.1168-0.6656-10.5984-2.1504a27.48416 27.48416 0 0 1-14.7456-35.9424c37.9904-90.7776 128.9728-104.0384 132.864-104.5504 14.9504-2.048 28.8256 8.4992 30.8736 23.552 1.9968 14.9504-8.448 28.7744-23.3984 30.8224-2.8672 0.4096-64.1024 10.24-89.6512 71.3216a27.4176 27.4176 0 0 1-25.344 16.9472z" fill="#FF5F89" p-id="8188"></path><path d="M241.7152 443.5456a449.68448 449.68448 0 0 0 112.3328-45.9776c20.6848-23.0912 44.7488-36.9664 64.3584-45.1584a452.26496 452.26496 0 0 0 119.0912-155.136c-8.192-3.0208-17.0496-4.7616-26.3168-4.7616-42.1888 0-76.4416 34.2016-76.4416 76.3904 0 0.3584 0.0512 0.7168 0.0512 1.0752-88.4224 24.2176-159.9488 89.2416-193.0752 173.568z" fill="#FF7196" p-id="8189"></path><path d="M285.9008 632.7296h-68.096c-17.9712 0-32.9728 12.3392-37.2224 28.9792 37.9904-8.192 74.0864-18.6368 105.3184-28.9792z" fill="#FF5F89" p-id="8190"></path></svg>