<?xml version="1.0" standalone="no"?><!DOCTYPE svg PUBLIC "-//W3C//DTD SVG 1.1//EN" "http://www.w3.org/Graphics/SVG/1.1/DTD/svg11.dtd"><svg t="1682579150316" class="icon" viewBox="0 0 1024 1024" version="1.1" xmlns="http://www.w3.org/2000/svg" p-id="8349" xmlns:xlink="http://www.w3.org/1999/xlink" width="72" height="72"><path d="M512.8704 511.6416m-450.816 0a450.816 450.816 0 1 0 901.632 0 450.816 450.816 0 1 0-901.632 0Z" fill="#FBE1FF" p-id="8350"></path><path d="M843.4176 425.216l-124.1088-161.8944c-9.728-12.6976-24.832-20.1216-40.8064-20.1216H339.968c-15.8208 0-30.7712 7.2704-40.4992 19.7632L178.176 417.9968c-15.4624 19.8144-14.3872 47.872 2.56 66.4064l292.0448 318.9248c20.224 22.1184 55.04 22.272 75.52 0.4096l291.84-312.1152c17.152-18.3296 18.5344-46.4384 3.2768-66.4064z m-158.208 75.4176l-152.32 167.3216a25.51296 25.51296 0 0 1-18.7904 8.2944h-0.1536a25.6256 25.6256 0 0 1-18.8928-8.5504L347.6992 501.6576a25.43104 25.43104 0 0 1 2.1504-35.8912 25.43104 25.43104 0 0 1 35.8912 2.1504l128.5632 144.896 133.2736-146.3808a25.43104 25.43104 0 0 1 35.9424-1.6896 25.36448 25.36448 0 0 1 1.6896 35.8912z" fill="#BD50D3" p-id="8351"></path><path d="M678.4512 243.1488H339.968c-15.8208 0-30.7712 7.2704-40.4992 19.7632L178.176 417.9968c-15.4624 19.8144-14.3872 47.872 2.56 66.4064l264.1408 288.4608c175.6672-61.5936 301.6192-228.8128 301.6192-425.5232 0-17.7664-1.0752-35.328-3.072-52.5824l-24.1664-31.5392c-9.728-12.5952-24.7808-20.0704-40.8064-20.0704z m6.7584 257.4848l-152.32 167.3216a25.51296 25.51296 0 0 1-18.7904 8.2944h-0.1536a25.6256 25.6256 0 0 1-18.8928-8.5504L347.6992 501.6576a25.43104 25.43104 0 0 1 2.1504-35.8912 25.43104 25.43104 0 0 1 35.8912 2.1504l128.5632 144.896 133.2736-146.3808a25.43104 25.43104 0 0 1 35.9424-1.6896 25.36448 25.36448 0 0 1 1.6896 35.8912z" fill="#C65EDB" p-id="8352"></path><path d="M347.6992 501.6576a25.43104 25.43104 0 0 1 2.1504-35.8912 25.43104 25.43104 0 0 1 35.8912 2.1504l65.3824 73.728c90.9824-71.68 153.6512-177.664 168.6016-298.4448H339.968c-15.8208 0-30.7712 7.2704-40.4992 19.7632L178.176 417.9968c-15.4624 19.8144-14.3872 47.872 2.56 66.4064l122.9312 134.2464a448.6144 448.6144 0 0 0 105.5232-47.7184L347.6992 501.6576z" fill="#CA6EE0" p-id="8353"></path><path d="M455.1168 243.1488H339.968c-15.8208 0-30.7712 7.2704-40.4992 19.7632L178.176 417.9968c-10.6496 13.6192-13.4656 31.232-8.6016 46.8992 123.136-31.0784 226.1504-112.7936 285.5424-221.7472z" fill="#D786EA" p-id="8354"></path></svg>